# xmcd
#
# Track frame offsets:
#   150
#   5262
#   21035
#   38912
#   51318
#   62978
#   76235
#   88714
#   102559
#   120142
#   132026
#   143121
#   154797
#   167640
#   184578
#   201113
#   214262
#   224316
#   238684
#   250156
#   262738
#   274616
#
# Disc length: 3898 seconds
#
# Revision: 0
# Processed by: cddbd v1.5.2PL0 Copyright (c) Steve Scherf et al.
# Submitted via: uFREEDB ActiveX Control 1.5
#
DISCID=2a0f3816
DTITLE=munhoz and mariano - ao vivo em campo grande
DYEAR=2011
DGENRE=Country
TTITLE0=abertura
TTITLE1=comendo água
TTITLE2=beberrão
TTITLE3=te quero bem
TTITLE4=ainda chora
TTITLE5=dona da minha paixão
TTITLE6=zé goré
TTITLE7=sonho bom
TTITLE8=toma conta
TTITLE9=cowboy ajeitado_playboy arretado
TTITLE10=não quero mais saber
TTITLE11=ruim com elas, pior sem elas
TTITLE12=longe
TTITLE13=é só dizer que sim
TTITLE14=tô te amando
TTITLE15=tô te querendo
TTITLE16=fim-de-semana
TTITLE17=uma vez em um milhão
TTITLE18=putaiada do carai
TTITLE19=intensamente
TTITLE20=procura outro mané
TTITLE21=eu adoro amar você
EXTD=
EXTT0=
EXTT1=
EXTT2=
EXTT3=
EXTT4=
EXTT5=
EXTT6=
EXTT7=
EXTT8=
EXTT9=
EXTT10=
EXTT11=
EXTT12=
EXTT13=
EXTT14=
EXTT15=
EXTT16=
EXTT17=
EXTT18=
EXTT19=
EXTT20=
EXTT21=
PLAYORDER=
